name ./resultDataOpenSim/trcMotMarkerGrf/sub09/grf-15-01.mot
datacolumns 19
datarows 30
range 1.52400000 1.64000000
endheader

                time	     ground_force_vx	     ground_force_vy	     ground_force_vz	     ground_force_px	     ground_force_py	     ground_force_pz	   l_ground_force_vx	   l_ground_force_vy	   l_ground_force_vz	   l_ground_force_px	   l_ground_force_py	   l_ground_force_pz	     ground_torque_x	     ground_torque_y	     ground_torque_z	   l_ground_torque_x	   l_ground_torque_y	   l_ground_torque_z	
          1.52400000	        -26.57648350	        440.45655407	         -0.01809923	          1.11521319	          0.00000000	         -0.00470372	          0.00000000	          0.00000000	          0.00000000	          0.00000000	          0.00000000	          0.00000000	          0.00000000	          1.27259343	          0.00000000	          0.00000000	          0.00000000	          0.00000000	
          1.52800000	        -23.60031987	        434.20662636	         -3.42407547	          1.11571633	          0.00000000	         -0.00487731	          0.00000000	          0.00000000	          0.00000000	          0.00000000	          0.00000000	          0.00000000	          0.00000000	          0.93060400	          0.00000000	          0.00000000	          0.00000000	          0.00000000	
          1.53200000	        -22.19836427	        428.37254122	         -6.30133309	          1.11647146	          0.00000000	         -0.00506062	          0.00000000	          0.00000000	          0.00000000	          0.00000000	          0.00000000	          0.00000000	          0.00000000	          0.63657104	          0.00000000	          0.00000000	          0.00000000	          0.00000000	
          1.53600000	        -22.47322643	        423.04332953	         -8.10370939	          1.11747325	          0.00000000	         -0.00528962	          0.00000000	          0.00000000	          0.00000000	          0.00000000	          0.00000000	          0.00000000	          0.00000000	          0.45920968	          0.00000000	          0.00000000	          0.00000000	          0.00000000	
          1.54000000	        -24.08838044	        418.27884044	         -8.47122187	          1.11863418	          0.00000000	         -0.00559293	          0.00000000	          0.00000000	          0.00000000	          0.00000000	          0.00000000	          0.00000000	          0.00000000	          0.44663062	          0.00000000	          0.00000000	          0.00000000	          0.00000000	
          1.54400000	        -26.38651788	        414.11578441	         -7.29012779	          1.11982412	          0.00000000	         -0.00597858	          0.00000000	          0.00000000	          0.00000000	          0.00000000	          0.00000000	          0.00000000	          0.00000000	          0.61810403	          0.00000000	          0.00000000	          0.00000000	          0.00000000	
          1.54800000	        -28.57306134	        410.56619488	         -4.71996388	          1.12089819	          0.00000000	         -0.00642787	          0.00000000	          0.00000000	          0.00000000	          0.00000000	          0.00000000	          0.00000000	          0.00000000	          0.96019303	          0.00000000	          0.00000000	          0.00000000	          0.00000000	
          1.55200000	        -29.91904002	        407.61496735	         -1.17145488	          1.12172449	          0.00000000	         -0.00690710	          0.00000000	          0.00000000	          0.00000000	          0.00000000	          0.00000000	          0.00000000	          0.00000000	          1.42832823	          0.00000000	          0.00000000	          0.00000000	          0.00000000	
          1.55600000	        -29.94550244	        405.21405993	          2.76764289	          1.12222411	          0.00000000	         -0.00737945	          0.00000000	          0.00000000	          0.00000000	          0.00000000	          0.00000000	          0.00000000	          0.00000000	          1.95415379	          0.00000000	          0.00000000	          0.00000000	          0.00000000	
          1.56000000	        -28.54257523	        403.28142457	          6.44107197	          1.12239759	          0.00000000	         -0.00781140	          0.00000000	          0.00000000	          0.00000000	          0.00000000	          0.00000000	          0.00000000	          0.00000000	          2.45774472	          0.00000000	          0.00000000	          0.00000000	          0.00000000	
          1.56400000	        -25.98073190	        401.72207897	          9.24564188	          1.12232636	          0.00000000	         -0.00818095	          0.00000000	          0.00000000	          0.00000000	          0.00000000	          0.00000000	          0.00000000	          0.00000000	          2.86249592	          0.00000000	          0.00000000	          0.00000000	          0.00000000	
          1.56800000	        -22.81210691	        400.46529052	         10.74252423	          1.12213969	          0.00000000	         -0.00848139	          0.00000000	          0.00000000	          0.00000000	          0.00000000	          0.00000000	          0.00000000	          0.00000000	          3.10965663	          0.00000000	          0.00000000	          0.00000000	          0.00000000	
          1.57200000	        -19.70260416	        399.48834962	         10.73892689	          1.12197104	          0.00000000	         -0.00871865	          0.00000000	          0.00000000	          0.00000000	          0.00000000	          0.00000000	          0.00000000	          0.00000000	          3.16949801	          0.00000000	          0.00000000	          0.00000000	          0.00000000	
          1.57600000	        -17.24769941	        398.81106752	          9.32334688	          1.12194029	          0.00000000	         -0.00890630	          0.00000000	          0.00000000	          0.00000000	          0.00000000	          0.00000000	          0.00000000	          0.00000000	          3.04693713	          0.00000000	          0.00000000	          0.00000000	          0.00000000	
          1.58000000	        -15.81346342	        398.47495967	          6.84327663	          1.12211440	          0.00000000	         -0.00906152	          0.00000000	          0.00000000	          0.00000000	          0.00000000	          0.00000000	          0.00000000	          0.00000000	          2.78071905	          0.00000000	          0.00000000	          0.00000000	          0.00000000	
          1.58400000	        -15.44167154	        398.52613907	          3.83528079	          1.12249011	          0.00000000	         -0.00920589	          0.00000000	          0.00000000	          0.00000000	          0.00000000	          0.00000000	          0.00000000	          0.00000000	          2.43649543	          0.00000000	          0.00000000	          0.00000000	          0.00000000	
          1.58800000	        -15.85234711	        399.00523056	          0.92422188	          1.12299105	          0.00000000	         -0.00935765	          0.00000000	          0.00000000	          0.00000000	          0.00000000	          0.00000000	          0.00000000	          0.00000000	          2.09503599	          0.00000000	          0.00000000	          0.00000000	          0.00000000	
          1.59200000	        -16.54119935	        399.93785891	         -1.29350386	          1.12349970	          0.00000000	         -0.00952416	          0.00000000	          0.00000000	          0.00000000	          0.00000000	          0.00000000	          0.00000000	          0.00000000	          1.83744612	          0.00000000	          0.00000000	          0.00000000	          0.00000000	
          1.59600000	        -16.93382110	        401.32586601	         -2.36037339	          1.12391115	          0.00000000	         -0.00970001	          0.00000000	          0.00000000	          0.00000000	          0.00000000	          0.00000000	          0.00000000	          0.00000000	          1.72982616	          0.00000000	          0.00000000	          0.00000000	          0.00000000	
          1.60000000	        -16.54945449	        403.15094205	         -2.04104092	          1.12413780	          0.00000000	         -0.00987157	          0.00000000	          0.00000000	          0.00000000	          0.00000000	          0.00000000	          0.00000000	          0.00000000	          1.81023275	          0.00000000	          0.00000000	          0.00000000	          0.00000000	
          1.60400000	        -15.13292638	        405.38964208	         -0.36944170	          1.12411249	          0.00000000	         -0.01003204	          0.00000000	          0.00000000	          0.00000000	          0.00000000	          0.00000000	          0.00000000	          0.00000000	          2.08083899	          0.00000000	          0.00000000	          0.00000000	          0.00000000	
          1.60800000	        -12.71915643	        408.01922453	          2.35126398	          1.12386018	          0.00000000	         -0.01017758	          0.00000000	          0.00000000	          0.00000000	          0.00000000	          0.00000000	          0.00000000	          0.00000000	          2.50746497	          0.00000000	          0.00000000	          0.00000000	          0.00000000	
          1.61200000	         -9.60613612	        411.01051601	          5.60727727	          1.12345145	          0.00000000	         -0.01029611	          0.00000000	          0.00000000	          0.00000000	          0.00000000	          0.00000000	          0.00000000	          0.00000000	          3.02687985	          0.00000000	          0.00000000	          0.00000000	          0.00000000	
          1.61600000	         -6.24690001	        414.32721067	          8.77566583	          1.12300033	          0.00000000	         -0.01036699	          0.00000000	          0.00000000	          0.00000000	          0.00000000	          0.00000000	          0.00000000	          0.00000000	          3.56003301	          0.00000000	          0.00000000	          0.00000000	          0.00000000	
          1.62000000	         -3.10526420	        417.94567071	         11.24278530	          1.12261247	          0.00000000	         -0.01037153	          0.00000000	          0.00000000	          0.00000000	          0.00000000	          0.00000000	          0.00000000	          0.00000000	          4.02789384	          0.00000000	          0.00000000	          0.00000000	          0.00000000	
          1.62400000	         -0.52179238	        421.88447169	         12.52113975	          1.12234954	          0.00000000	         -0.01030138	          0.00000000	          0.00000000	          0.00000000	          0.00000000	          0.00000000	          0.00000000	          0.00000000	          4.36639311	          0.00000000	          0.00000000	          0.00000000	          0.00000000	
          1.62800000	          1.38046610	        426.21332488	         12.33848221	          1.12220988	          0.00000000	         -0.01015272	          0.00000000	          0.00000000	          0.00000000	          0.00000000	          0.00000000	          0.00000000	          0.00000000	          4.53769154	          0.00000000	          0.00000000	          0.00000000	          0.00000000	
          1.63200000	          2.73073013	        431.02681926	         10.68036824	          1.12214108	          0.00000000	         -0.00992214	          0.00000000	          0.00000000	          0.00000000	          0.00000000	          0.00000000	          0.00000000	          0.00000000	          4.53611369	          0.00000000	          0.00000000	          0.00000000	          0.00000000	
          1.63600000	          3.87284481	        436.40962086	          7.78552842	          1.12207356	          0.00000000	         -0.00961256	          0.00000000	          0.00000000	          0.00000000	          0.00000000	          0.00000000	          0.00000000	          0.00000000	          4.38811965	          0.00000000	          0.00000000	          0.00000000	          0.00000000	
          1.64000000	          5.26413135	        442.42936290	          4.09638221	          1.12193384	          0.00000000	         -0.00923253	          0.00000000	          0.00000000	          0.00000000	          0.00000000	          0.00000000	          0.00000000	          0.00000000	          4.14650119	          0.00000000	          0.00000000	          0.00000000	          0.00000000	
